<?xml version="1.0" encoding="utf-8"?>
<!-- Generator: Adobe Illustrator 16.0.3, SVG Export Plug-In . SVG Version: 6.00 Build 0)  -->
<!DOCTYPE svg PUBLIC "-//W3C//DTD SVG 1.1//EN" "http://www.w3.org/Graphics/SVG/1.1/DTD/svg11.dtd">
<svg version="1.1" id="Layer_1" xmlns="http://www.w3.org/2000/svg" xmlns:xlink="http://www.w3.org/1999/xlink" x="0px" y="0px"
	 width="512px" height="512px" viewBox="0 0 512 512" enable-background="new 0 0 512 512" xml:space="preserve">
<g>
	<path fill="#6F8FAE" d="M388.861,38.886h-25.925v38.886h25.925c46.43,0,84.252,37.798,84.252,84.253
		c0,27.62-13.366,52.152-33.975,67.519c-8.986,6.684-19.797,10.253-30.986,10.253H202.912c-13.747,0-26.912-5.468-36.659-15.19
		L51.848,110.177v51.848C44.354,174.228,0,240.734,0,254.987c0,20.253,16.405,36.658,36.633,36.658
		c50.709,0,67.063,25.925,67.063,25.925v129.619c0,14.33,11.569,25.924,25.924,25.924c14.304,0,25.924-11.594,25.924-25.924
		c0-28.633,23.19-51.848,51.848-51.848h129.62c28.607,0,51.849,23.215,51.849,51.848c0,14.33,11.568,25.924,25.924,25.924
		c14.303,0,25.924-11.594,25.924-25.924V302.531c0-16.506,7.848-31.975,21.088-41.771C492.203,238.38,512,202.557,512,162.025
		C512,94.126,456.76,38.886,388.861,38.886z"/>
</g>
</svg>
